<svg xmlns="http://www.w3.org/2000/svg" xmlns:xlink="http://www.w3.org/1999/xlink" width="500" zoomAndPan="magnify" viewBox="0 0 375 374.999991" height="500" preserveAspectRatio="xMidYMid meet" version="1.0"><defs><g/><clipPath id="0d6f28c0ca"><path d="M 101.269531 30.523438 L 273.769531 30.523438 L 273.769531 211.273438 L 101.269531 211.273438 Z M 101.269531 30.523438 " clip-rule="nonzero"/></clipPath><clipPath id="b9984a7e5a"><path d="M 200.359375 114.734375 L 123.367188 114.734375 C 120.378906 114.734375 118.21875 111.886719 119.023438 109.015625 L 140.164062 33.8125 C 140.710938 31.871094 142.484375 30.527344 144.503906 30.527344 L 221.5 30.527344 C 224.484375 30.527344 226.644531 33.375 225.839844 36.242188 L 204.699219 111.449219 C 204.15625 113.390625 202.382812 114.734375 200.359375 114.734375 Z M 150.351562 171.5 L 161.234375 132.777344 C 162.042969 129.90625 159.878906 127.0625 156.894531 127.0625 L 117.316406 127.0625 C 115.292969 127.0625 113.519531 128.402344 112.976562 130.347656 L 102.089844 169.066406 C 101.285156 171.9375 103.445312 174.785156 106.429688 174.785156 L 146.011719 174.785156 C 148.03125 174.785156 149.804688 173.441406 150.351562 171.5 Z M 170.378906 130.347656 L 149.242188 205.550781 C 148.433594 208.421875 150.597656 211.265625 153.582031 211.265625 L 230.578125 211.265625 C 232.597656 211.265625 234.371094 209.925781 234.917969 207.980469 L 256.054688 132.777344 C 256.863281 129.90625 254.703125 127.0625 251.714844 127.0625 L 174.71875 127.0625 C 172.699219 127.0625 170.925781 128.402344 170.378906 130.347656 Z M 224.730469 70.292969 L 213.847656 109.015625 C 213.039062 111.886719 215.199219 114.734375 218.1875 114.734375 L 257.765625 114.734375 C 259.785156 114.734375 261.558594 113.390625 262.105469 111.449219 L 272.988281 72.726562 C 273.796875 69.855469 271.636719 67.011719 268.648438 67.011719 L 229.070312 67.011719 C 227.050781 67.011719 225.277344 68.351562 224.730469 70.292969 Z M 224.730469 70.292969 " clip-rule="nonzero"/></clipPath><linearGradient x1="114.296438" gradientTransform="matrix(0.362091, 0, 0, 0.361477, 101.920679, 30.527899)" y1="-47.63398" x2="358.610853" gradientUnits="userSpaceOnUse" y2="547.607226" id="bc4c76b8fc"><stop stop-opacity="1" stop-color="rgb(0%, 98.799133%, 65.899658%)" offset="0"/><stop stop-opacity="1" stop-color="rgb(0%, 98.799133%, 65.899658%)" offset="0.0625"/><stop stop-opacity="1" stop-color="rgb(0.0213623%, 98.773193%, 65.965271%)" offset="0.09375"/><stop stop-opacity="1" stop-color="rgb(0.100708%, 98.677063%, 66.210938%)" offset="0.101563"/><stop stop-opacity="1" stop-color="rgb(0.216675%, 98.536682%, 66.571045%)" offset="0.109375"/><stop stop-opacity="1" stop-color="rgb(0.332642%, 98.396301%, 66.929626%)" offset="0.117188"/><stop stop-opacity="1" stop-color="rgb(0.448608%, 98.25592%, 67.289734%)" offset="0.125"/><stop stop-opacity="1" stop-color="rgb(0.564575%, 98.117065%, 67.649841%)" offset="0.132813"/><stop stop-opacity="1" stop-color="rgb(0.679016%, 97.976685%, 68.008423%)" offset="0.140625"/><stop stop-opacity="1" stop-color="rgb(0.794983%, 97.836304%, 68.36853%)" offset="0.148438"/><stop stop-opacity="1" stop-color="rgb(0.91095%, 97.695923%, 68.727112%)" offset="0.15625"/><stop stop-opacity="1" stop-color="rgb(1.026917%, 97.555542%, 69.087219%)" offset="0.164063"/><stop stop-opacity="1" stop-color="rgb(1.142883%, 97.415161%, 69.445801%)" offset="0.171875"/><stop stop-opacity="1" stop-color="rgb(1.25885%, 97.27478%, 69.805908%)" offset="0.179688"/><stop stop-opacity="1" stop-color="rgb(1.374817%, 97.135925%, 70.16449%)" offset="0.1875"/><stop stop-opacity="1" stop-color="rgb(1.490784%, 96.995544%, 70.524597%)" offset="0.195312"/><stop stop-opacity="1" stop-color="rgb(1.60675%, 96.855164%, 70.883179%)" offset="0.203125"/><stop stop-opacity="1" stop-color="rgb(1.722717%, 96.714783%, 71.243286%)" offset="0.210937"/><stop stop-opacity="1" stop-color="rgb(1.838684%, 96.574402%, 71.603394%)" offset="0.21875"/><stop stop-opacity="1" stop-color="rgb(1.954651%, 96.434021%, 71.961975%)" offset="0.226563"/><stop stop-opacity="1" stop-color="rgb(2.070618%, 96.29364%, 72.322083%)" offset="0.234375"/><stop stop-opacity="1" stop-color="rgb(2.186584%, 96.153259%, 72.680664%)" offset="0.242188"/><stop stop-opacity="1" stop-color="rgb(2.302551%, 96.014404%, 73.040771%)" offset="0.25"/><stop stop-opacity="1" stop-color="rgb(2.418518%, 95.874023%, 73.399353%)" offset="0.257813"/><stop stop-opacity="1" stop-color="rgb(2.534485%, 95.733643%, 73.75946%)" offset="0.265625"/><stop stop-opacity="1" stop-color="rgb(2.650452%, 95.593262%, 74.118042%)" offset="0.273438"/><stop stop-opacity="1" stop-color="rgb(2.766418%, 95.452881%, 74.478149%)" offset="0.281113"/><stop stop-opacity="1" stop-color="rgb(2.824402%, 95.38269%, 74.658203%)" offset="0.28125"/><stop stop-opacity="1" stop-color="rgb(2.882385%, 95.3125%, 74.836731%)" offset="0.289062"/><stop stop-opacity="1" stop-color="rgb(2.998352%, 95.172119%, 75.196838%)" offset="0.296875"/><stop stop-opacity="1" stop-color="rgb(3.114319%, 95.031738%, 75.556946%)" offset="0.304688"/><stop stop-opacity="1" stop-color="rgb(3.230286%, 94.892883%, 75.915527%)" offset="0.3125"/><stop stop-opacity="1" stop-color="rgb(3.346252%, 94.752502%, 76.275635%)" offset="0.320312"/><stop stop-opacity="1" stop-color="rgb(3.462219%, 94.612122%, 76.634216%)" offset="0.328125"/><stop stop-opacity="1" stop-color="rgb(3.578186%, 94.471741%, 76.994324%)" offset="0.335938"/><stop stop-opacity="1" stop-color="rgb(3.694153%, 94.33136%, 77.352905%)" offset="0.34375"/><stop stop-opacity="1" stop-color="rgb(3.81012%, 94.190979%, 77.713013%)" offset="0.351563"/><stop stop-opacity="1" stop-color="rgb(3.926086%, 94.050598%, 78.071594%)" offset="0.359375"/><stop stop-opacity="1" stop-color="rgb(4.042053%, 93.911743%, 78.431702%)" offset="0.367188"/><stop stop-opacity="1" stop-color="rgb(4.15802%, 93.771362%, 78.790283%)" offset="0.375"/><stop stop-opacity="1" stop-color="rgb(4.273987%, 93.630981%, 79.150391%)" offset="0.382813"/><stop stop-opacity="1" stop-color="rgb(4.389954%, 93.490601%, 79.510498%)" offset="0.390625"/><stop stop-opacity="1" stop-color="rgb(4.50592%, 93.35022%, 79.86908%)" offset="0.398438"/><stop stop-opacity="1" stop-color="rgb(4.621887%, 93.209839%, 80.229187%)" offset="0.40625"/><stop stop-opacity="1" stop-color="rgb(4.737854%, 93.069458%, 80.587769%)" offset="0.414062"/><stop stop-opacity="1" stop-color="rgb(4.853821%, 92.929077%, 80.947876%)" offset="0.421875"/><stop stop-opacity="1" stop-color="rgb(4.969788%, 92.790222%, 81.306458%)" offset="0.429688"/><stop stop-opacity="1" stop-color="rgb(5.085754%, 92.649841%, 81.666565%)" offset="0.4375"/><stop stop-opacity="1" stop-color="rgb(5.201721%, 92.50946%, 82.025146%)" offset="0.445312"/><stop stop-opacity="1" stop-color="rgb(5.317688%, 92.36908%, 82.385254%)" offset="0.453125"/><stop stop-opacity="1" stop-color="rgb(5.433655%, 92.228699%, 82.743835%)" offset="0.460938"/><stop stop-opacity="1" stop-color="rgb(5.549622%, 92.088318%, 83.103943%)" offset="0.46875"/><stop stop-opacity="1" stop-color="rgb(5.665588%, 91.947937%, 83.46405%)" offset="0.476562"/><stop stop-opacity="1" stop-color="rgb(5.781555%, 91.807556%, 83.822632%)" offset="0.484375"/><stop stop-opacity="1" stop-color="rgb(5.897522%, 91.668701%, 84.182739%)" offset="0.492188"/><stop stop-opacity="1" stop-color="rgb(6.013489%, 91.52832%, 84.541321%)" offset="0.5"/><stop stop-opacity="1" stop-color="rgb(6.129456%, 91.387939%, 84.901428%)" offset="0.507812"/><stop stop-opacity="1" stop-color="rgb(6.245422%, 91.247559%, 85.26001%)" offset="0.515625"/><stop stop-opacity="1" stop-color="rgb(6.361389%, 91.107178%, 85.620117%)" offset="0.523438"/><stop stop-opacity="1" stop-color="rgb(6.477356%, 90.966797%, 85.978699%)" offset="0.53125"/><stop stop-opacity="1" stop-color="rgb(6.593323%, 90.826416%, 86.338806%)" offset="0.539062"/><stop stop-opacity="1" stop-color="rgb(6.70929%, 90.687561%, 86.697388%)" offset="0.546875"/><stop stop-opacity="1" stop-color="rgb(6.825256%, 90.54718%, 87.057495%)" offset="0.554688"/><stop stop-opacity="1" stop-color="rgb(6.941223%, 90.406799%, 87.417603%)" offset="0.5625"/><stop stop-opacity="1" stop-color="rgb(7.05719%, 90.266418%, 87.776184%)" offset="0.570312"/><stop stop-opacity="1" stop-color="rgb(7.171631%, 90.126038%, 88.136292%)" offset="0.578125"/><stop stop-opacity="1" stop-color="rgb(7.287598%, 89.985657%, 88.494873%)" offset="0.585938"/><stop stop-opacity="1" stop-color="rgb(7.403564%, 89.845276%, 88.85498%)" offset="0.59375"/><stop stop-opacity="1" stop-color="rgb(7.519531%, 89.704895%, 89.213562%)" offset="0.601562"/><stop stop-opacity="1" stop-color="rgb(7.635498%, 89.56604%, 89.573669%)" offset="0.609375"/><stop stop-opacity="1" stop-color="rgb(7.751465%, 89.425659%, 89.932251%)" offset="0.617188"/><stop stop-opacity="1" stop-color="rgb(7.867432%, 89.285278%, 90.292358%)" offset="0.625"/><stop stop-opacity="1" stop-color="rgb(7.983398%, 89.144897%, 90.65094%)" offset="0.632812"/><stop stop-opacity="1" stop-color="rgb(8.099365%, 89.004517%, 91.011047%)" offset="0.640625"/><stop stop-opacity="1" stop-color="rgb(8.215332%, 88.864136%, 91.371155%)" offset="0.648438"/><stop stop-opacity="1" stop-color="rgb(8.331299%, 88.723755%, 91.729736%)" offset="0.65625"/><stop stop-opacity="1" stop-color="rgb(8.447266%, 88.583374%, 92.089844%)" offset="0.664062"/><stop stop-opacity="1" stop-color="rgb(8.563232%, 88.444519%, 92.448425%)" offset="0.671875"/><stop stop-opacity="1" stop-color="rgb(8.679199%, 88.304138%, 92.808533%)" offset="0.679688"/><stop stop-opacity="1" stop-color="rgb(8.795166%, 88.163757%, 93.167114%)" offset="0.6875"/><stop stop-opacity="1" stop-color="rgb(8.911133%, 88.023376%, 93.527222%)" offset="0.695312"/><stop stop-opacity="1" stop-color="rgb(9.0271%, 87.882996%, 93.885803%)" offset="0.703125"/><stop stop-opacity="1" stop-color="rgb(9.143066%, 87.742615%, 94.245911%)" offset="0.710938"/><stop stop-opacity="1" stop-color="rgb(9.259033%, 87.602234%, 94.604492%)" offset="0.71875"/><stop stop-opacity="1" stop-color="rgb(9.375%, 87.463379%, 94.9646%)" offset="0.718887"/><stop stop-opacity="1" stop-color="rgb(9.432983%, 87.393188%, 95.144653%)" offset="0.726562"/><stop stop-opacity="1" stop-color="rgb(9.490967%, 87.322998%, 95.324707%)" offset="0.734375"/><stop stop-opacity="1" stop-color="rgb(9.606934%, 87.182617%, 95.683289%)" offset="0.742188"/><stop stop-opacity="1" stop-color="rgb(9.7229%, 87.042236%, 96.043396%)" offset="0.75"/><stop stop-opacity="1" stop-color="rgb(9.838867%, 86.901855%, 96.401978%)" offset="0.757812"/><stop stop-opacity="1" stop-color="rgb(9.954834%, 86.761475%, 96.762085%)" offset="0.765625"/><stop stop-opacity="1" stop-color="rgb(10.070801%, 86.621094%, 97.120667%)" offset="0.773438"/><stop stop-opacity="1" stop-color="rgb(10.186768%, 86.480713%, 97.480774%)" offset="0.78125"/><stop stop-opacity="1" stop-color="rgb(10.302734%, 86.341858%, 97.839355%)" offset="0.789062"/><stop stop-opacity="1" stop-color="rgb(10.418701%, 86.201477%, 98.199463%)" offset="0.796875"/><stop stop-opacity="1" stop-color="rgb(10.534668%, 86.061096%, 98.558044%)" offset="0.804688"/><stop stop-opacity="1" stop-color="rgb(10.650635%, 85.920715%, 98.918152%)" offset="0.8125"/><stop stop-opacity="1" stop-color="rgb(10.766602%, 85.780334%, 99.278259%)" offset="0.820312"/><stop stop-opacity="1" stop-color="rgb(10.882568%, 85.639954%, 99.636841%)" offset="0.828125"/><stop stop-opacity="1" stop-color="rgb(10.969543%, 85.534668%, 99.908447%)" offset="0.84375"/><stop stop-opacity="1" stop-color="rgb(10.998535%, 85.499573%, 100%)" offset="0.875"/><stop stop-opacity="1" stop-color="rgb(10.998535%, 85.499573%, 100%)" offset="1"/></linearGradient></defs><g clip-path="url(#0d6f28c0ca)"><g clip-path="url(#b9984a7e5a)"><path fill="url(#bc4c76b8fc)" d="M 101.285156 30.527344 L 101.285156 211.265625 L 273.769531 211.265625 L 273.769531 30.527344 Z M 101.285156 30.527344 " fill-rule="nonzero"/></g></g><g fill="#ffffff" fill-opacity="1"><g transform="translate(36.649873, 274.591492)"><g><path d="M 19.8125 -7.171875 C 21.476562 -7.171875 23.109375 -7.550781 24.703125 -8.3125 C 26.296875 -9.082031 27.90625 -10.367188 29.53125 -12.171875 L 34.625 -7.328125 C 32.582031 -4.691406 30.253906 -2.695312 27.640625 -1.34375 C 25.023438 0 22.328125 0.671875 19.546875 0.671875 C 17.054688 0.671875 14.71875 0.160156 12.53125 -0.859375 C 10.34375 -1.878906 8.441406 -3.253906 6.828125 -4.984375 C 5.222656 -6.722656 3.957031 -8.742188 3.03125 -11.046875 C 2.113281 -13.359375 1.65625 -15.8125 1.65625 -18.40625 C 1.65625 -21.007812 2.132812 -23.453125 3.09375 -25.734375 C 4.050781 -28.023438 5.34375 -30.035156 6.96875 -31.765625 C 8.59375 -33.503906 10.515625 -34.875 12.734375 -35.875 C 14.953125 -36.882812 17.3125 -37.390625 19.8125 -37.390625 C 22.132812 -37.390625 24.34375 -36.953125 26.4375 -36.078125 C 28.539062 -35.210938 30.597656 -33.773438 32.609375 -31.765625 L 28.03125 -26.203125 C 26.570312 -27.554688 25.191406 -28.46875 23.890625 -28.9375 C 22.585938 -29.40625 21.226562 -29.640625 19.8125 -29.640625 C 18.394531 -29.640625 17.050781 -29.34375 15.78125 -28.75 C 14.519531 -28.164062 13.421875 -27.367188 12.484375 -26.359375 C 11.546875 -25.359375 10.804688 -24.171875 10.265625 -22.796875 C 9.734375 -21.429688 9.46875 -19.96875 9.46875 -18.40625 C 9.46875 -16.84375 9.734375 -15.382812 10.265625 -14.03125 C 10.804688 -12.6875 11.546875 -11.5 12.484375 -10.46875 C 13.421875 -9.445312 14.519531 -8.640625 15.78125 -8.046875 C 17.050781 -7.460938 18.394531 -7.171875 19.8125 -7.171875 Z M 19.8125 -7.171875 "/></g></g></g><g fill="#ffffff" fill-opacity="1"><g transform="translate(72.00713, 274.591492)"><g><path d="M 25.109375 -36.875 L 40.515625 0 L 31.984375 0 L 28.65625 -7.90625 L 13 -7.90625 L 9.71875 0 L 1.140625 0 L 16.53125 -36.875 Z M 25.6875 -15.078125 L 20.859375 -26.671875 L 16.015625 -15.078125 Z M 25.6875 -15.078125 "/></g></g></g><g fill="#ffffff" fill-opacity="1"><g transform="translate(112.875965, 274.591492)"><g><path d="M 25.890625 -18.984375 C 27.347656 -18.117188 28.457031 -17.007812 29.21875 -15.65625 C 29.988281 -14.300781 30.375 -12.738281 30.375 -10.96875 C 30.375 -9.300781 29.972656 -7.75 29.171875 -6.3125 C 28.367188 -4.875 27.242188 -3.601562 25.796875 -2.5 C 24.472656 -1.488281 22.96875 -0.710938 21.28125 -0.171875 C 19.601562 0.359375 17.832031 0.640625 15.96875 0.671875 C 14.09375 0.671875 12.304688 0.410156 10.609375 -0.109375 C 8.910156 -0.628906 7.398438 -1.40625 6.078125 -2.4375 C 4.109375 -3.9375 2.757812 -5.742188 2.03125 -7.859375 L 9.3125 -11.234375 C 9.3125 -10.890625 9.429688 -10.457031 9.671875 -9.9375 C 9.910156 -9.414062 10.289062 -8.910156 10.8125 -8.421875 C 11.332031 -7.941406 12.007812 -7.523438 12.84375 -7.171875 C 13.675781 -6.828125 14.695312 -6.65625 15.90625 -6.65625 C 16.882812 -6.65625 17.742188 -6.773438 18.484375 -7.015625 C 19.234375 -7.265625 19.859375 -7.566406 20.359375 -7.921875 C 20.859375 -8.285156 21.238281 -8.703125 21.5 -9.171875 C 21.757812 -9.640625 21.890625 -10.117188 21.890625 -10.609375 C 21.890625 -11.160156 21.707031 -11.675781 21.34375 -12.15625 C 20.976562 -12.644531 20.414062 -13.03125 19.65625 -13.3125 C 18.269531 -13.800781 16.804688 -14.207031 15.265625 -14.53125 C 13.722656 -14.863281 12.222656 -15.28125 10.765625 -15.78125 C 9.304688 -16.28125 7.953125 -16.945312 6.703125 -17.78125 C 5.460938 -18.613281 4.476562 -19.773438 3.75 -21.265625 C 3.082031 -22.585938 2.75 -23.992188 2.75 -25.484375 C 2.75 -27.140625 3.140625 -28.75 3.921875 -30.3125 C 4.703125 -31.875 5.769531 -33.191406 7.125 -34.265625 C 8.40625 -35.273438 9.84375 -36.046875 11.4375 -36.578125 C 13.03125 -37.117188 14.710938 -37.390625 16.484375 -37.390625 C 18.253906 -37.390625 19.941406 -37.128906 21.546875 -36.609375 C 23.160156 -36.085938 24.609375 -35.320312 25.890625 -34.3125 C 27.140625 -33.382812 28.128906 -32.296875 28.859375 -31.046875 L 22.9375 -26.984375 C 22.207031 -27.992188 21.296875 -28.800781 20.203125 -29.40625 C 19.109375 -30.007812 17.882812 -30.3125 16.53125 -30.3125 C 14.664062 -30.3125 13.21875 -29.894531 12.1875 -29.0625 C 11.164062 -28.226562 10.65625 -27.140625 10.65625 -25.796875 C 10.65625 -25.171875 10.941406 -24.613281 11.515625 -24.125 C 12.085938 -23.644531 12.832031 -23.210938 13.75 -22.828125 C 14.664062 -22.441406 15.695312 -22.101562 16.84375 -21.8125 C 17.988281 -21.519531 19.125 -21.222656 20.25 -20.921875 C 21.375 -20.628906 22.4375 -20.328125 23.4375 -20.015625 C 24.445312 -19.703125 25.265625 -19.359375 25.890625 -18.984375 Z M 25.890625 -18.984375 "/></g></g></g><g fill="#ffffff" fill-opacity="1"><g transform="translate(144.12552, 274.591492)"><g><path d="M 27.203125 -36.875 L 35.09375 -36.875 L 35.09375 0 L 27.203125 0 L 27.203125 -15.859375 L 10.296875 -15.859375 L 10.296875 0 L 2.4375 0 L 2.4375 -36.875 L 10.296875 -36.875 L 10.296875 -23.03125 L 27.203125 -23.03125 Z M 27.203125 -36.875 "/></g></g></g><g fill="#ffffff" fill-opacity="1"><g transform="translate(180.886664, 274.591492)"><g/></g></g><g fill="#ffffff" fill-opacity="1"><g transform="translate(194.405581, 274.591492)"><g><path d="M 2.4375 -36.875 L 25.484375 -36.875 L 25.484375 -29.6875 L 10.34375 -29.6875 L 10.34375 -23.03125 L 23.65625 -23.03125 L 23.65625 -15.859375 L 10.34375 -15.859375 L 10.34375 0 L 2.4375 0 Z M 2.4375 -36.875 "/></g></g></g><g fill="#ffffff" fill-opacity="1"><g transform="translate(219.779591, 274.591492)"><g><path d="M 19.859375 -37.390625 C 22.359375 -37.390625 24.71875 -36.882812 26.9375 -35.875 C 29.15625 -34.875 31.085938 -33.503906 32.734375 -31.765625 C 34.378906 -30.035156 35.675781 -28.023438 36.625 -25.734375 C 37.582031 -23.453125 38.0625 -21.007812 38.0625 -18.40625 C 38.0625 -15.84375 37.582031 -13.398438 36.625 -11.078125 C 35.675781 -8.753906 34.378906 -6.722656 32.734375 -4.984375 C 31.085938 -3.253906 29.15625 -1.878906 26.9375 -0.859375 C 24.71875 0.160156 22.359375 0.671875 19.859375 0.671875 C 17.367188 0.671875 15.015625 0.160156 12.796875 -0.859375 C 10.578125 -1.878906 8.648438 -3.253906 7.015625 -4.984375 C 5.390625 -6.722656 4.097656 -8.753906 3.140625 -11.078125 C 2.191406 -13.398438 1.71875 -15.84375 1.71875 -18.40625 C 1.71875 -21.007812 2.191406 -23.453125 3.140625 -25.734375 C 4.097656 -28.023438 5.390625 -30.035156 7.015625 -31.765625 C 8.648438 -33.503906 10.578125 -34.875 12.796875 -35.875 C 15.015625 -36.882812 17.367188 -37.390625 19.859375 -37.390625 Z M 19.859375 -7.171875 C 21.285156 -7.171875 22.617188 -7.460938 23.859375 -8.046875 C 25.109375 -8.640625 26.203125 -9.445312 27.140625 -10.46875 C 28.078125 -11.5 28.8125 -12.6875 29.34375 -14.03125 C 29.882812 -15.382812 30.15625 -16.84375 30.15625 -18.40625 C 30.15625 -19.96875 29.882812 -21.429688 29.34375 -22.796875 C 28.8125 -24.171875 28.078125 -25.367188 27.140625 -26.390625 C 26.203125 -27.410156 25.109375 -28.210938 23.859375 -28.796875 C 22.617188 -29.390625 21.285156 -29.6875 19.859375 -29.6875 C 18.441406 -29.6875 17.109375 -29.390625 15.859375 -28.796875 C 14.609375 -28.210938 13.515625 -27.410156 12.578125 -26.390625 C 11.648438 -25.367188 10.914062 -24.171875 10.375 -22.796875 C 9.832031 -21.429688 9.5625 -19.96875 9.5625 -18.40625 C 9.5625 -16.84375 9.832031 -15.382812 10.375 -14.03125 C 10.914062 -12.6875 11.648438 -11.5 12.578125 -10.46875 C 13.515625 -9.445312 14.609375 -8.640625 15.859375 -8.046875 C 17.109375 -7.460938 18.441406 -7.171875 19.859375 -7.171875 Z M 19.859375 -7.171875 "/></g></g></g><g fill="#ffffff" fill-opacity="1"><g transform="translate(258.776568, 274.591492)"><g><path d="M 28.96875 -25.890625 C 28.96875 -24.710938 28.800781 -23.59375 28.46875 -22.53125 C 28.132812 -21.476562 27.671875 -20.507812 27.078125 -19.625 C 26.492188 -18.738281 25.785156 -17.957031 24.953125 -17.28125 C 24.128906 -16.613281 23.226562 -16.070312 22.25 -15.65625 L 34.46875 0 L 25.265625 0 L 13.890625 -14.875 L 10.34375 -14.875 L 10.34375 0 L 2.4375 0 L 2.4375 -36.875 L 18.359375 -36.875 C 19.816406 -36.875 21.191406 -36.585938 22.484375 -36.015625 C 23.785156 -35.441406 24.910156 -34.660156 25.859375 -33.671875 C 26.816406 -32.679688 27.570312 -31.519531 28.125 -30.1875 C 28.6875 -28.851562 28.96875 -27.421875 28.96875 -25.890625 Z M 17.375 -22.046875 C 18.375 -22.046875 19.238281 -22.414062 19.96875 -23.15625 C 20.695312 -23.90625 21.0625 -24.816406 21.0625 -25.890625 C 21.0625 -26.929688 20.695312 -27.820312 19.96875 -28.5625 C 19.238281 -29.3125 18.375 -29.6875 17.375 -29.6875 L 10.34375 -29.6875 L 10.34375 -22.046875 Z M 17.375 -22.046875 "/></g></g></g><g fill="#ffffff" fill-opacity="1"><g transform="translate(293.717849, 274.591492)"><g><path d="M 34.734375 -36.875 L 42.171875 -36.875 L 42.171875 0 L 34.3125 0 L 34.3125 -24.34375 L 25.53125 -12.015625 L 19.234375 -12.015625 L 10.34375 -23.96875 L 10.34375 0 L 2.4375 0 L 2.4375 -36.875 L 9.9375 -36.875 L 22.40625 -19.859375 Z M 34.734375 -36.875 "/></g></g></g><g fill="#1cdaff" fill-opacity="1"><g transform="translate(106.297682, 320.3183)"><g><path d="M 8.46875 -3.1875 C 8.46875 -2.707031 8.367188 -2.257812 8.171875 -1.84375 C 7.984375 -1.4375 7.703125 -1.078125 7.328125 -0.765625 C 6.585938 -0.148438 5.644531 0.15625 4.5 0.15625 C 3.601562 0.15625 2.789062 -0.0234375 2.0625 -0.390625 C 1.332031 -0.753906 0.800781 -1.25 0.46875 -1.875 L 1.890625 -2.609375 C 2.097656 -2.222656 2.429688 -1.925781 2.890625 -1.71875 C 3.359375 -1.507812 3.894531 -1.40625 4.5 -1.40625 C 6.039062 -1.40625 6.8125 -2 6.8125 -3.1875 C 6.8125 -3.40625 6.769531 -3.59375 6.6875 -3.75 C 6.613281 -3.914062 6.5 -4.066406 6.34375 -4.203125 C 5.957031 -4.523438 5.265625 -4.816406 4.265625 -5.078125 C 3.671875 -5.222656 3.164062 -5.382812 2.75 -5.5625 C 2.332031 -5.75 1.988281 -5.960938 1.71875 -6.203125 C 1.039062 -6.753906 0.703125 -7.476562 0.703125 -8.375 C 0.703125 -8.820312 0.789062 -9.238281 0.96875 -9.625 C 1.144531 -10.007812 1.394531 -10.347656 1.71875 -10.640625 C 2.039062 -10.929688 2.421875 -11.144531 2.859375 -11.28125 C 3.304688 -11.425781 3.800781 -11.5 4.34375 -11.5 C 5.113281 -11.5 5.828125 -11.347656 6.484375 -11.046875 C 7.140625 -10.753906 7.640625 -10.335938 7.984375 -9.796875 L 6.6875 -8.984375 C 6.375 -9.359375 6.015625 -9.625 5.609375 -9.78125 C 5.210938 -9.9375 4.789062 -10.015625 4.34375 -10.015625 C 4.019531 -10.015625 3.722656 -9.960938 3.453125 -9.859375 C 3.191406 -9.753906 2.96875 -9.625 2.78125 -9.46875 C 2.632812 -9.34375 2.523438 -9.1875 2.453125 -9 C 2.390625 -8.8125 2.359375 -8.613281 2.359375 -8.40625 C 2.359375 -8.257812 2.378906 -8.113281 2.421875 -7.96875 C 2.460938 -7.832031 2.5625 -7.6875 2.71875 -7.53125 C 2.875 -7.375 3.109375 -7.222656 3.421875 -7.078125 C 3.734375 -6.929688 4.15625 -6.789062 4.6875 -6.65625 C 5.320312 -6.5 5.859375 -6.328125 6.296875 -6.140625 C 6.734375 -5.953125 7.101562 -5.726562 7.40625 -5.46875 C 8.113281 -4.894531 8.46875 -4.132812 8.46875 -3.1875 Z M 8.46875 -3.1875 "/></g></g></g><g fill="#1cdaff" fill-opacity="1"><g transform="translate(115.575453, 320.3183)"><g><path d="M 2.515625 0 L 0.953125 0 L 0.953125 -7.65625 L 2.5 -7.65625 Z M 1.734375 -9.328125 C 1.453125 -9.328125 1.210938 -9.425781 1.015625 -9.625 C 0.828125 -9.820312 0.734375 -10.0625 0.734375 -10.34375 C 0.734375 -10.613281 0.828125 -10.84375 1.015625 -11.03125 C 1.210938 -11.226562 1.453125 -11.328125 1.734375 -11.328125 C 2.003906 -11.328125 2.234375 -11.226562 2.421875 -11.03125 C 2.617188 -10.84375 2.71875 -10.613281 2.71875 -10.34375 C 2.71875 -10.0625 2.617188 -9.820312 2.421875 -9.625 C 2.234375 -9.425781 2.003906 -9.328125 1.734375 -9.328125 Z M 1.734375 -9.328125 "/></g></g></g><g fill="#1cdaff" fill-opacity="1"><g transform="translate(118.934648, 320.3183)"><g><path d="M 8.21875 -11.6875 L 8.21875 0 L 6.984375 0 L 6.671875 -0.796875 C 6.359375 -0.492188 6.003906 -0.253906 5.609375 -0.078125 C 5.222656 0.0976562 4.769531 0.1875 4.25 0.1875 C 3.71875 0.1875 3.226562 0.0820312 2.78125 -0.125 C 2.332031 -0.332031 1.941406 -0.613281 1.609375 -0.96875 C 1.285156 -1.332031 1.03125 -1.757812 0.84375 -2.25 C 0.65625 -2.738281 0.5625 -3.265625 0.5625 -3.828125 C 0.5625 -4.378906 0.65625 -4.898438 0.84375 -5.390625 C 1.03125 -5.878906 1.285156 -6.304688 1.609375 -6.671875 C 1.941406 -7.035156 2.332031 -7.320312 2.78125 -7.53125 C 3.226562 -7.738281 3.71875 -7.84375 4.25 -7.84375 C 4.789062 -7.84375 5.253906 -7.753906 5.640625 -7.578125 C 6.035156 -7.398438 6.378906 -7.148438 6.671875 -6.828125 L 6.671875 -11.6875 Z M 4.390625 -1.1875 C 4.703125 -1.1875 4.992188 -1.238281 5.265625 -1.34375 C 5.546875 -1.445312 5.785156 -1.609375 5.984375 -1.828125 C 6.191406 -2.046875 6.351562 -2.320312 6.46875 -2.65625 C 6.59375 -2.988281 6.65625 -3.378906 6.65625 -3.828125 C 6.65625 -4.304688 6.59375 -4.707031 6.46875 -5.03125 C 6.351562 -5.363281 6.191406 -5.632812 5.984375 -5.84375 C 5.785156 -6.050781 5.546875 -6.203125 5.265625 -6.296875 C 4.992188 -6.390625 4.703125 -6.4375 4.390625 -6.4375 C 4.078125 -6.4375 3.78125 -6.367188 3.5 -6.234375 C 3.226562 -6.097656 2.988281 -5.910156 2.78125 -5.671875 C 2.582031 -5.441406 2.421875 -5.164062 2.296875 -4.84375 C 2.179688 -4.53125 2.125 -4.191406 2.125 -3.828125 C 2.125 -3.460938 2.179688 -3.117188 2.296875 -2.796875 C 2.421875 -2.472656 2.582031 -2.191406 2.78125 -1.953125 C 2.988281 -1.710938 3.226562 -1.523438 3.5 -1.390625 C 3.78125 -1.253906 4.078125 -1.1875 4.390625 -1.1875 Z M 4.390625 -1.1875 "/></g></g></g><g fill="#1cdaff" fill-opacity="1"><g transform="translate(128.19642, 320.3183)"><g><path d="M 4.53125 0.1875 C 3.976562 0.1875 3.457031 0.0820312 2.96875 -0.125 C 2.476562 -0.332031 2.050781 -0.613281 1.6875 -0.96875 C 1.332031 -1.332031 1.050781 -1.757812 0.84375 -2.25 C 0.632812 -2.738281 0.53125 -3.265625 0.53125 -3.828125 C 0.53125 -4.378906 0.628906 -4.898438 0.828125 -5.390625 C 1.023438 -5.878906 1.289062 -6.304688 1.625 -6.671875 C 1.957031 -7.035156 2.347656 -7.320312 2.796875 -7.53125 C 3.242188 -7.738281 3.722656 -7.84375 4.234375 -7.84375 C 4.765625 -7.84375 5.25 -7.75 5.6875 -7.5625 C 6.132812 -7.382812 6.519531 -7.101562 6.84375 -6.71875 C 7.164062 -6.332031 7.414062 -5.84375 7.59375 -5.25 C 7.78125 -4.664062 7.875 -3.960938 7.875 -3.140625 L 2.171875 -3.140625 C 2.242188 -2.859375 2.359375 -2.597656 2.515625 -2.359375 C 2.679688 -2.117188 2.875 -1.910156 3.09375 -1.734375 C 3.3125 -1.554688 3.554688 -1.421875 3.828125 -1.328125 C 4.097656 -1.234375 4.382812 -1.1875 4.6875 -1.1875 C 5.09375 -1.1875 5.46875 -1.257812 5.8125 -1.40625 C 6.164062 -1.550781 6.460938 -1.75 6.703125 -2 L 7.65625 -1.046875 C 7.289062 -0.671875 6.835938 -0.367188 6.296875 -0.140625 C 5.753906 0.078125 5.164062 0.1875 4.53125 0.1875 Z M 4.234375 -6.4375 C 3.992188 -6.4375 3.765625 -6.382812 3.546875 -6.28125 C 3.328125 -6.1875 3.125 -6.050781 2.9375 -5.875 C 2.75 -5.707031 2.585938 -5.503906 2.453125 -5.265625 C 2.316406 -5.035156 2.21875 -4.785156 2.15625 -4.515625 L 6.203125 -4.515625 C 6.179688 -4.765625 6.125 -5.003906 6.03125 -5.234375 C 5.9375 -5.472656 5.800781 -5.679688 5.625 -5.859375 C 5.457031 -6.035156 5.257812 -6.175781 5.03125 -6.28125 C 4.800781 -6.382812 4.535156 -6.4375 4.234375 -6.4375 Z M 4.234375 -6.4375 "/></g></g></g><g fill="#1cdaff" fill-opacity="1"><g transform="translate(136.674386, 320.3183)"><g/></g></g><g fill="#1cdaff" fill-opacity="1"><g transform="translate(140.849385, 320.3183)"><g><path d="M 2.453125 0 L 0.890625 0 L 0.890625 -11.6875 L 2.453125 -11.6875 L 2.453125 -6.953125 C 2.734375 -7.273438 3.03125 -7.503906 3.34375 -7.640625 C 3.664062 -7.773438 4.035156 -7.84375 4.453125 -7.84375 C 4.984375 -7.84375 5.457031 -7.738281 5.875 -7.53125 C 6.300781 -7.320312 6.660156 -7.035156 6.953125 -6.671875 C 7.253906 -6.304688 7.484375 -5.878906 7.640625 -5.390625 C 7.796875 -4.898438 7.875 -4.378906 7.875 -3.828125 L 7.875 0 L 6.296875 0 L 6.296875 -3.828125 C 6.296875 -4.191406 6.242188 -4.53125 6.140625 -4.84375 C 6.046875 -5.164062 5.910156 -5.441406 5.734375 -5.671875 C 5.554688 -5.910156 5.351562 -6.097656 5.125 -6.234375 C 4.894531 -6.367188 4.648438 -6.4375 4.390625 -6.4375 C 4.160156 -6.4375 3.929688 -6.390625 3.703125 -6.296875 C 3.484375 -6.203125 3.28125 -6.050781 3.09375 -5.84375 C 2.90625 -5.644531 2.75 -5.378906 2.625 -5.046875 C 2.507812 -4.722656 2.453125 -4.328125 2.453125 -3.859375 Z M 2.453125 0 "/></g></g></g><g fill="#1cdaff" fill-opacity="1"><g transform="translate(149.519302, 320.3183)"><g><path d="M 6.078125 -0.6875 C 5.816406 -0.4375 5.503906 -0.234375 5.140625 -0.078125 C 4.785156 0.078125 4.390625 0.15625 3.953125 0.15625 C 3.671875 0.15625 3.351562 0.113281 3 0.03125 C 2.65625 -0.0390625 2.328125 -0.191406 2.015625 -0.421875 C 1.710938 -0.660156 1.457031 -0.984375 1.25 -1.390625 C 1.039062 -1.804688 0.9375 -2.347656 0.9375 -3.015625 L 0.9375 -7.65625 L 2.421875 -7.65625 L 2.421875 -3.015625 C 2.421875 -2.679688 2.46875 -2.398438 2.5625 -2.171875 C 2.664062 -1.941406 2.800781 -1.753906 2.96875 -1.609375 C 3.132812 -1.472656 3.320312 -1.375 3.53125 -1.3125 C 3.75 -1.25 3.96875 -1.21875 4.1875 -1.21875 C 4.363281 -1.21875 4.5625 -1.25 4.78125 -1.3125 C 5 -1.375 5.203125 -1.476562 5.390625 -1.625 C 5.585938 -1.769531 5.75 -1.953125 5.875 -2.171875 C 6.007812 -2.398438 6.078125 -2.671875 6.078125 -2.984375 L 6.078125 -7.65625 L 7.625 -7.65625 L 7.625 0 L 6.40625 0 Z M 6.078125 -0.6875 "/></g></g></g><g fill="#1cdaff" fill-opacity="1"><g transform="translate(158.077251, 320.3183)"><g><path d="M 4.46875 -1.59375 C 4.5625 -1.6875 4.644531 -1.785156 4.71875 -1.890625 C 4.789062 -1.992188 4.828125 -2.113281 4.828125 -2.25 C 4.828125 -2.425781 4.765625 -2.570312 4.640625 -2.6875 C 4.523438 -2.800781 4.378906 -2.898438 4.203125 -2.984375 C 4.023438 -3.066406 3.835938 -3.128906 3.640625 -3.171875 C 3.453125 -3.210938 3.296875 -3.25 3.171875 -3.28125 C 2.816406 -3.363281 2.484375 -3.46875 2.171875 -3.59375 C 1.867188 -3.71875 1.601562 -3.863281 1.375 -4.03125 C 1.144531 -4.207031 0.960938 -4.414062 0.828125 -4.65625 C 0.691406 -4.90625 0.625 -5.191406 0.625 -5.515625 C 0.625 -5.828125 0.695312 -6.117188 0.84375 -6.390625 C 1 -6.660156 1.203125 -6.898438 1.453125 -7.109375 C 1.703125 -7.316406 1.992188 -7.484375 2.328125 -7.609375 C 2.660156 -7.734375 3.015625 -7.796875 3.390625 -7.796875 C 3.722656 -7.796875 4.035156 -7.742188 4.328125 -7.640625 C 4.628906 -7.546875 4.898438 -7.414062 5.140625 -7.25 C 5.378906 -7.09375 5.582031 -6.894531 5.75 -6.65625 C 5.914062 -6.414062 6.023438 -6.15625 6.078125 -5.875 L 4.6875 -5.53125 C 4.625 -5.789062 4.484375 -6.003906 4.265625 -6.171875 C 4.054688 -6.347656 3.765625 -6.4375 3.390625 -6.4375 C 3.265625 -6.4375 3.128906 -6.414062 2.984375 -6.375 C 2.847656 -6.332031 2.722656 -6.273438 2.609375 -6.203125 C 2.492188 -6.128906 2.394531 -6.039062 2.3125 -5.9375 C 2.226562 -5.832031 2.1875 -5.707031 2.1875 -5.5625 C 2.1875 -5.414062 2.234375 -5.289062 2.328125 -5.1875 C 2.421875 -5.082031 2.53125 -4.992188 2.65625 -4.921875 C 2.78125 -4.847656 2.914062 -4.789062 3.0625 -4.75 C 3.21875 -4.707031 3.359375 -4.671875 3.484375 -4.640625 C 4.054688 -4.503906 4.523438 -4.351562 4.890625 -4.1875 C 5.265625 -4.03125 5.5625 -3.851562 5.78125 -3.65625 C 6.007812 -3.46875 6.171875 -3.257812 6.265625 -3.03125 C 6.359375 -2.800781 6.40625 -2.539062 6.40625 -2.25 C 6.40625 -1.914062 6.328125 -1.597656 6.171875 -1.296875 C 6.015625 -0.992188 5.800781 -0.734375 5.53125 -0.515625 C 5.257812 -0.296875 4.929688 -0.125 4.546875 0 C 4.171875 0.113281 3.765625 0.171875 3.328125 0.171875 C 2.671875 0.171875 2.082031 0.0078125 1.5625 -0.3125 C 1.039062 -0.632812 0.691406 -1.066406 0.515625 -1.609375 L 1.828125 -2.203125 C 1.992188 -1.828125 2.207031 -1.570312 2.46875 -1.4375 C 2.738281 -1.3125 3.046875 -1.25 3.390625 -1.25 C 3.816406 -1.25 4.175781 -1.363281 4.46875 -1.59375 Z M 4.46875 -1.59375 "/></g></g></g><g fill="#1cdaff" fill-opacity="1"><g transform="translate(164.955596, 320.3183)"><g><path d="M 5.0625 -0.015625 C 4.625 0.128906 4.191406 0.21875 3.765625 0.25 C 3.335938 0.28125 2.953125 0.21875 2.609375 0.0625 C 2.265625 -0.0820312 1.984375 -0.347656 1.765625 -0.734375 C 1.554688 -1.128906 1.453125 -1.679688 1.453125 -2.390625 L 1.453125 -6.265625 L 0.34375 -6.265625 L 0.34375 -7.34375 L 1.453125 -7.65625 L 1.453125 -9.71875 L 3.015625 -9.71875 L 3.015625 -7.65625 L 5.09375 -7.65625 L 5.09375 -6.265625 L 3.015625 -6.265625 L 3.015625 -2.140625 C 3.015625 -1.890625 3.039062 -1.6875 3.09375 -1.53125 C 3.15625 -1.382812 3.253906 -1.273438 3.390625 -1.203125 C 3.523438 -1.128906 3.703125 -1.09375 3.921875 -1.09375 C 4.148438 -1.09375 4.425781 -1.113281 4.75 -1.15625 Z M 5.0625 -0.015625 "/></g></g></g><g fill="#1cdaff" fill-opacity="1"><g transform="translate(170.426283, 320.3183)"><g><path d="M 2.53125 -11.6875 L 2.53125 0 L 0.96875 0 L 0.96875 -11.6875 Z M 2.53125 -11.6875 "/></g></g></g><g fill="#1cdaff" fill-opacity="1"><g transform="translate(173.817465, 320.3183)"><g><path d="M 4.53125 0.1875 C 3.976562 0.1875 3.457031 0.0820312 2.96875 -0.125 C 2.476562 -0.332031 2.050781 -0.613281 1.6875 -0.96875 C 1.332031 -1.332031 1.050781 -1.757812 0.84375 -2.25 C 0.632812 -2.738281 0.53125 -3.265625 0.53125 -3.828125 C 0.53125 -4.378906 0.628906 -4.898438 0.828125 -5.390625 C 1.023438 -5.878906 1.289062 -6.304688 1.625 -6.671875 C 1.957031 -7.035156 2.347656 -7.320312 2.796875 -7.53125 C 3.242188 -7.738281 3.722656 -7.84375 4.234375 -7.84375 C 4.765625 -7.84375 5.25 -7.75 5.6875 -7.5625 C 6.132812 -7.382812 6.519531 -7.101562 6.84375 -6.71875 C 7.164062 -6.332031 7.414062 -5.84375 7.59375 -5.25 C 7.78125 -4.664062 7.875 -3.960938 7.875 -3.140625 L 2.171875 -3.140625 C 2.242188 -2.859375 2.359375 -2.597656 2.515625 -2.359375 C 2.679688 -2.117188 2.875 -1.910156 3.09375 -1.734375 C 3.3125 -1.554688 3.554688 -1.421875 3.828125 -1.328125 C 4.097656 -1.234375 4.382812 -1.1875 4.6875 -1.1875 C 5.09375 -1.1875 5.46875 -1.257812 5.8125 -1.40625 C 6.164062 -1.550781 6.460938 -1.75 6.703125 -2 L 7.65625 -1.046875 C 7.289062 -0.671875 6.835938 -0.367188 6.296875 -0.140625 C 5.753906 0.078125 5.164062 0.1875 4.53125 0.1875 Z M 4.234375 -6.4375 C 3.992188 -6.4375 3.765625 -6.382812 3.546875 -6.28125 C 3.328125 -6.1875 3.125 -6.050781 2.9375 -5.875 C 2.75 -5.707031 2.585938 -5.503906 2.453125 -5.265625 C 2.316406 -5.035156 2.21875 -4.785156 2.15625 -4.515625 L 6.203125 -4.515625 C 6.179688 -4.765625 6.125 -5.003906 6.03125 -5.234375 C 5.9375 -5.472656 5.800781 -5.679688 5.625 -5.859375 C 5.457031 -6.035156 5.257812 -6.175781 5.03125 -6.28125 C 4.800781 -6.382812 4.535156 -6.4375 4.234375 -6.4375 Z M 4.234375 -6.4375 "/></g></g></g><g fill="#1cdaff" fill-opacity="1"><g transform="translate(182.295431, 320.3183)"><g><path d="M 4.46875 -1.59375 C 4.5625 -1.6875 4.644531 -1.785156 4.71875 -1.890625 C 4.789062 -1.992188 4.828125 -2.113281 4.828125 -2.25 C 4.828125 -2.425781 4.765625 -2.570312 4.640625 -2.6875 C 4.523438 -2.800781 4.378906 -2.898438 4.203125 -2.984375 C 4.023438 -3.066406 3.835938 -3.128906 3.640625 -3.171875 C 3.453125 -3.210938 3.296875 -3.25 3.171875 -3.28125 C 2.816406 -3.363281 2.484375 -3.46875 2.171875 -3.59375 C 1.867188 -3.71875 1.601562 -3.863281 1.375 -4.03125 C 1.144531 -4.207031 0.960938 -4.414062 0.828125 -4.65625 C 0.691406 -4.90625 0.625 -5.191406 0.625 -5.515625 C 0.625 -5.828125 0.695312 -6.117188 0.84375 -6.390625 C 1 -6.660156 1.203125 -6.898438 1.453125 -7.109375 C 1.703125 -7.316406 1.992188 -7.484375 2.328125 -7.609375 C 2.660156 -7.734375 3.015625 -7.796875 3.390625 -7.796875 C 3.722656 -7.796875 4.035156 -7.742188 4.328125 -7.640625 C 4.628906 -7.546875 4.898438 -7.414062 5.140625 -7.25 C 5.378906 -7.09375 5.582031 -6.894531 5.75 -6.65625 C 5.914062 -6.414062 6.023438 -6.15625 6.078125 -5.875 L 4.6875 -5.53125 C 4.625 -5.789062 4.484375 -6.003906 4.265625 -6.171875 C 4.054688 -6.347656 3.765625 -6.4375 3.390625 -6.4375 C 3.265625 -6.4375 3.128906 -6.414062 2.984375 -6.375 C 2.847656 -6.332031 2.722656 -6.273438 2.609375 -6.203125 C 2.492188 -6.128906 2.394531 -6.039062 2.3125 -5.9375 C 2.226562 -5.832031 2.1875 -5.707031 2.1875 -5.5625 C 2.1875 -5.414062 2.234375 -5.289062 2.328125 -5.1875 C 2.421875 -5.082031 2.53125 -4.992188 2.65625 -4.921875 C 2.78125 -4.847656 2.914062 -4.789062 3.0625 -4.75 C 3.21875 -4.707031 3.359375 -4.671875 3.484375 -4.640625 C 4.054688 -4.503906 4.523438 -4.351562 4.890625 -4.1875 C 5.265625 -4.03125 5.5625 -3.851562 5.78125 -3.65625 C 6.007812 -3.46875 6.171875 -3.257812 6.265625 -3.03125 C 6.359375 -2.800781 6.40625 -2.539062 6.40625 -2.25 C 6.40625 -1.914062 6.328125 -1.597656 6.171875 -1.296875 C 6.015625 -0.992188 5.800781 -0.734375 5.53125 -0.515625 C 5.257812 -0.296875 4.929688 -0.125 4.546875 0 C 4.171875 0.113281 3.765625 0.171875 3.328125 0.171875 C 2.671875 0.171875 2.082031 0.0078125 1.5625 -0.3125 C 1.039062 -0.632812 0.691406 -1.066406 0.515625 -1.609375 L 1.828125 -2.203125 C 1.992188 -1.828125 2.207031 -1.570312 2.46875 -1.4375 C 2.738281 -1.3125 3.046875 -1.25 3.390625 -1.25 C 3.816406 -1.25 4.175781 -1.363281 4.46875 -1.59375 Z M 4.46875 -1.59375 "/></g></g></g><g fill="#1cdaff" fill-opacity="1"><g transform="translate(189.173776, 320.3183)"><g/></g></g><g fill="#1cdaff" fill-opacity="1"><g transform="translate(193.348774, 320.3183)"><g><path d="M 2.453125 0 L 0.890625 0 L 0.890625 -7.65625 L 2.125 -7.65625 L 2.453125 -7.015625 C 2.640625 -7.234375 2.863281 -7.425781 3.125 -7.59375 C 3.394531 -7.757812 3.722656 -7.84375 4.109375 -7.84375 C 4.265625 -7.84375 4.429688 -7.820312 4.609375 -7.78125 C 4.796875 -7.75 4.988281 -7.6875 5.1875 -7.59375 C 5.382812 -7.5 5.570312 -7.375 5.75 -7.21875 C 5.9375 -7.0625 6.09375 -6.863281 6.21875 -6.625 C 6.40625 -6.957031 6.679688 -7.242188 7.046875 -7.484375 C 7.410156 -7.722656 7.800781 -7.84375 8.21875 -7.84375 C 8.5 -7.84375 8.789062 -7.796875 9.09375 -7.703125 C 9.40625 -7.617188 9.695312 -7.457031 9.96875 -7.21875 C 10.238281 -6.988281 10.457031 -6.664062 10.625 -6.25 C 10.789062 -5.832031 10.875 -5.296875 10.875 -4.640625 L 10.875 0 L 9.421875 0 L 9.421875 -4.65625 C 9.421875 -5.3125 9.285156 -5.769531 9.015625 -6.03125 C 8.742188 -6.300781 8.382812 -6.4375 7.9375 -6.4375 C 7.59375 -6.4375 7.289062 -6.289062 7.03125 -6 C 6.78125 -5.707031 6.65625 -5.253906 6.65625 -4.640625 L 6.65625 0 L 5.203125 0 L 5.203125 -4.65625 C 5.203125 -5.3125 5.066406 -5.769531 4.796875 -6.03125 C 4.523438 -6.300781 4.164062 -6.4375 3.71875 -6.4375 C 3.394531 -6.4375 3.113281 -6.3125 2.875 -6.0625 C 2.632812 -5.820312 2.492188 -5.4375 2.453125 -4.90625 Z M 2.453125 0 "/></g></g></g><g fill="#1cdaff" fill-opacity="1"><g transform="translate(205.153938, 320.3183)"><g><path d="M 8.15625 -7.65625 L 8.15625 0 L 6.84375 0 L 6.609375 -0.875 C 6.335938 -0.53125 5.992188 -0.265625 5.578125 -0.078125 C 5.160156 0.0976562 4.738281 0.1875 4.3125 0.1875 C 3.78125 0.1875 3.28125 0.0820312 2.8125 -0.125 C 2.351562 -0.332031 1.953125 -0.613281 1.609375 -0.96875 C 1.265625 -1.332031 0.988281 -1.757812 0.78125 -2.25 C 0.582031 -2.738281 0.484375 -3.265625 0.484375 -3.828125 C 0.484375 -4.378906 0.582031 -4.898438 0.78125 -5.390625 C 0.988281 -5.878906 1.265625 -6.304688 1.609375 -6.671875 C 1.953125 -7.035156 2.351562 -7.320312 2.8125 -7.53125 C 3.28125 -7.738281 3.78125 -7.84375 4.3125 -7.84375 C 4.738281 -7.84375 5.148438 -7.757812 5.546875 -7.59375 C 5.941406 -7.425781 6.296875 -7.164062 6.609375 -6.8125 L 6.84375 -7.65625 Z M 4.3125 -1.1875 C 4.625 -1.1875 4.914062 -1.253906 5.1875 -1.390625 C 5.46875 -1.523438 5.707031 -1.710938 5.90625 -1.953125 C 6.113281 -2.191406 6.273438 -2.472656 6.390625 -2.796875 C 6.515625 -3.117188 6.578125 -3.460938 6.578125 -3.828125 C 6.578125 -4.191406 6.515625 -4.53125 6.390625 -4.84375 C 6.273438 -5.164062 6.113281 -5.445312 5.90625 -5.6875 C 5.707031 -5.925781 5.46875 -6.113281 5.1875 -6.25 C 4.914062 -6.394531 4.625 -6.46875 4.3125 -6.46875 C 4.007812 -6.46875 3.71875 -6.394531 3.4375 -6.25 C 3.164062 -6.113281 2.925781 -5.925781 2.71875 -5.6875 C 2.519531 -5.445312 2.359375 -5.164062 2.234375 -4.84375 C 2.117188 -4.53125 2.0625 -4.191406 2.0625 -3.828125 C 2.0625 -3.460938 2.117188 -3.117188 2.234375 -2.796875 C 2.359375 -2.472656 2.519531 -2.191406 2.71875 -1.953125 C 2.925781 -1.710938 3.164062 -1.523438 3.4375 -1.390625 C 3.71875 -1.253906 4.007812 -1.1875 4.3125 -1.1875 Z M 4.3125 -1.1875 "/></g></g></g><g fill="#1cdaff" fill-opacity="1"><g transform="translate(213.999808, 320.3183)"><g><path d="M 8.21875 -11.6875 L 8.21875 0 L 6.984375 0 L 6.671875 -0.796875 C 6.359375 -0.492188 6.003906 -0.253906 5.609375 -0.078125 C 5.222656 0.0976562 4.769531 0.1875 4.25 0.1875 C 3.71875 0.1875 3.226562 0.0820312 2.78125 -0.125 C 2.332031 -0.332031 1.941406 -0.613281 1.609375 -0.96875 C 1.285156 -1.332031 1.03125 -1.757812 0.84375 -2.25 C 0.65625 -2.738281 0.5625 -3.265625 0.5625 -3.828125 C 0.5625 -4.378906 0.65625 -4.898438 0.84375 -5.390625 C 1.03125 -5.878906 1.285156 -6.304688 1.609375 -6.671875 C 1.941406 -7.035156 2.332031 -7.320312 2.78125 -7.53125 C 3.226562 -7.738281 3.71875 -7.84375 4.25 -7.84375 C 4.789062 -7.84375 5.253906 -7.753906 5.640625 -7.578125 C 6.035156 -7.398438 6.378906 -7.148438 6.671875 -6.828125 L 6.671875 -11.6875 Z M 4.390625 -1.1875 C 4.703125 -1.1875 4.992188 -1.238281 5.265625 -1.34375 C 5.546875 -1.445312 5.785156 -1.609375 5.984375 -1.828125 C 6.191406 -2.046875 6.351562 -2.320312 6.46875 -2.65625 C 6.59375 -2.988281 6.65625 -3.378906 6.65625 -3.828125 C 6.65625 -4.304688 6.59375 -4.707031 6.46875 -5.03125 C 6.351562 -5.363281 6.191406 -5.632812 5.984375 -5.84375 C 5.785156 -6.050781 5.546875 -6.203125 5.265625 -6.296875 C 4.992188 -6.390625 4.703125 -6.4375 4.390625 -6.4375 C 4.078125 -6.4375 3.78125 -6.367188 3.5 -6.234375 C 3.226562 -6.097656 2.988281 -5.910156 2.78125 -5.671875 C 2.582031 -5.441406 2.421875 -5.164062 2.296875 -4.84375 C 2.179688 -4.53125 2.125 -4.191406 2.125 -3.828125 C 2.125 -3.460938 2.179688 -3.117188 2.296875 -2.796875 C 2.421875 -2.472656 2.582031 -2.191406 2.78125 -1.953125 C 2.988281 -1.710938 3.226562 -1.523438 3.5 -1.390625 C 3.78125 -1.253906 4.078125 -1.1875 4.390625 -1.1875 Z M 4.390625 -1.1875 "/></g></g></g><g fill="#1cdaff" fill-opacity="1"><g transform="translate(223.26158, 320.3183)"><g><path d="M 4.53125 0.1875 C 3.976562 0.1875 3.457031 0.0820312 2.96875 -0.125 C 2.476562 -0.332031 2.050781 -0.613281 1.6875 -0.96875 C 1.332031 -1.332031 1.050781 -1.757812 0.84375 -2.25 C 0.632812 -2.738281 0.53125 -3.265625 0.53125 -3.828125 C 0.53125 -4.378906 0.628906 -4.898438 0.828125 -5.390625 C 1.023438 -5.878906 1.289062 -6.304688 1.625 -6.671875 C 1.957031 -7.035156 2.347656 -7.320312 2.796875 -7.53125 C 3.242188 -7.738281 3.722656 -7.84375 4.234375 -7.84375 C 4.765625 -7.84375 5.25 -7.75 5.6875 -7.5625 C 6.132812 -7.382812 6.519531 -7.101562 6.84375 -6.71875 C 7.164062 -6.332031 7.414062 -5.84375 7.59375 -5.25 C 7.78125 -4.664062 7.875 -3.960938 7.875 -3.140625 L 2.171875 -3.140625 C 2.242188 -2.859375 2.359375 -2.597656 2.515625 -2.359375 C 2.679688 -2.117188 2.875 -1.910156 3.09375 -1.734375 C 3.3125 -1.554688 3.554688 -1.421875 3.828125 -1.328125 C 4.097656 -1.234375 4.382812 -1.1875 4.6875 -1.1875 C 5.09375 -1.1875 5.46875 -1.257812 5.8125 -1.40625 C 6.164062 -1.550781 6.460938 -1.75 6.703125 -2 L 7.65625 -1.046875 C 7.289062 -0.671875 6.835938 -0.367188 6.296875 -0.140625 C 5.753906 0.078125 5.164062 0.1875 4.53125 0.1875 Z M 4.234375 -6.4375 C 3.992188 -6.4375 3.765625 -6.382812 3.546875 -6.28125 C 3.328125 -6.1875 3.125 -6.050781 2.9375 -5.875 C 2.75 -5.707031 2.585938 -5.503906 2.453125 -5.265625 C 2.316406 -5.035156 2.21875 -4.785156 2.15625 -4.515625 L 6.203125 -4.515625 C 6.179688 -4.765625 6.125 -5.003906 6.03125 -5.234375 C 5.9375 -5.472656 5.800781 -5.679688 5.625 -5.859375 C 5.457031 -6.035156 5.257812 -6.175781 5.03125 -6.28125 C 4.800781 -6.382812 4.535156 -6.4375 4.234375 -6.4375 Z M 4.234375 -6.4375 "/></g></g></g><g fill="#1cdaff" fill-opacity="1"><g transform="translate(231.739546, 320.3183)"><g/></g></g><g fill="#1cdaff" fill-opacity="1"><g transform="translate(235.914545, 320.3183)"><g><path d="M 4.53125 0.1875 C 3.976562 0.1875 3.457031 0.0820312 2.96875 -0.125 C 2.476562 -0.332031 2.050781 -0.613281 1.6875 -0.96875 C 1.332031 -1.332031 1.050781 -1.757812 0.84375 -2.25 C 0.632812 -2.738281 0.53125 -3.265625 0.53125 -3.828125 C 0.53125 -4.378906 0.628906 -4.898438 0.828125 -5.390625 C 1.023438 -5.878906 1.289062 -6.304688 1.625 -6.671875 C 1.957031 -7.035156 2.347656 -7.320312 2.796875 -7.53125 C 3.242188 -7.738281 3.722656 -7.84375 4.234375 -7.84375 C 4.765625 -7.84375 5.25 -7.75 5.6875 -7.5625 C 6.132812 -7.382812 6.519531 -7.101562 6.84375 -6.71875 C 7.164062 -6.332031 7.414062 -5.84375 7.59375 -5.25 C 7.78125 -4.664062 7.875 -3.960938 7.875 -3.140625 L 2.171875 -3.140625 C 2.242188 -2.859375 2.359375 -2.597656 2.515625 -2.359375 C 2.679688 -2.117188 2.875 -1.910156 3.09375 -1.734375 C 3.3125 -1.554688 3.554688 -1.421875 3.828125 -1.328125 C 4.097656 -1.234375 4.382812 -1.1875 4.6875 -1.1875 C 5.09375 -1.1875 5.46875 -1.257812 5.8125 -1.40625 C 6.164062 -1.550781 6.460938 -1.75 6.703125 -2 L 7.65625 -1.046875 C 7.289062 -0.671875 6.835938 -0.367188 6.296875 -0.140625 C 5.753906 0.078125 5.164062 0.1875 4.53125 0.1875 Z M 4.234375 -6.4375 C 3.992188 -6.4375 3.765625 -6.382812 3.546875 -6.28125 C 3.328125 -6.1875 3.125 -6.050781 2.9375 -5.875 C 2.75 -5.707031 2.585938 -5.503906 2.453125 -5.265625 C 2.316406 -5.035156 2.21875 -4.785156 2.15625 -4.515625 L 6.203125 -4.515625 C 6.179688 -4.765625 6.125 -5.003906 6.03125 -5.234375 C 5.9375 -5.472656 5.800781 -5.679688 5.625 -5.859375 C 5.457031 -6.035156 5.257812 -6.175781 5.03125 -6.28125 C 4.800781 -6.382812 4.535156 -6.4375 4.234375 -6.4375 Z M 4.234375 -6.4375 "/></g></g></g><g fill="#1cdaff" fill-opacity="1"><g transform="translate(244.39251, 320.3183)"><g><path d="M 8.15625 -7.65625 L 8.15625 0 L 6.84375 0 L 6.609375 -0.875 C 6.335938 -0.53125 5.992188 -0.265625 5.578125 -0.078125 C 5.160156 0.0976562 4.738281 0.1875 4.3125 0.1875 C 3.78125 0.1875 3.28125 0.0820312 2.8125 -0.125 C 2.351562 -0.332031 1.953125 -0.613281 1.609375 -0.96875 C 1.265625 -1.332031 0.988281 -1.757812 0.78125 -2.25 C 0.582031 -2.738281 0.484375 -3.265625 0.484375 -3.828125 C 0.484375 -4.378906 0.582031 -4.898438 0.78125 -5.390625 C 0.988281 -5.878906 1.265625 -6.304688 1.609375 -6.671875 C 1.953125 -7.035156 2.351562 -7.320312 2.8125 -7.53125 C 3.28125 -7.738281 3.78125 -7.84375 4.3125 -7.84375 C 4.738281 -7.84375 5.148438 -7.757812 5.546875 -7.59375 C 5.941406 -7.425781 6.296875 -7.164062 6.609375 -6.8125 L 6.84375 -7.65625 Z M 4.3125 -1.1875 C 4.625 -1.1875 4.914062 -1.253906 5.1875 -1.390625 C 5.46875 -1.523438 5.707031 -1.710938 5.90625 -1.953125 C 6.113281 -2.191406 6.273438 -2.472656 6.390625 -2.796875 C 6.515625 -3.117188 6.578125 -3.460938 6.578125 -3.828125 C 6.578125 -4.191406 6.515625 -4.53125 6.390625 -4.84375 C 6.273438 -5.164062 6.113281 -5.445312 5.90625 -5.6875 C 5.707031 -5.925781 5.46875 -6.113281 5.1875 -6.25 C 4.914062 -6.394531 4.625 -6.46875 4.3125 -6.46875 C 4.007812 -6.46875 3.71875 -6.394531 3.4375 -6.25 C 3.164062 -6.113281 2.925781 -5.925781 2.71875 -5.6875 C 2.519531 -5.445312 2.359375 -5.164062 2.234375 -4.84375 C 2.117188 -4.53125 2.0625 -4.191406 2.0625 -3.828125 C 2.0625 -3.460938 2.117188 -3.117188 2.234375 -2.796875 C 2.359375 -2.472656 2.519531 -2.191406 2.71875 -1.953125 C 2.925781 -1.710938 3.164062 -1.523438 3.4375 -1.390625 C 3.71875 -1.253906 4.007812 -1.1875 4.3125 -1.1875 Z M 4.3125 -1.1875 "/></g></g></g><g fill="#1cdaff" fill-opacity="1"><g transform="translate(253.238381, 320.3183)"><g><path d="M 4.46875 -1.59375 C 4.5625 -1.6875 4.644531 -1.785156 4.71875 -1.890625 C 4.789062 -1.992188 4.828125 -2.113281 4.828125 -2.25 C 4.828125 -2.425781 4.765625 -2.570312 4.640625 -2.6875 C 4.523438 -2.800781 4.378906 -2.898438 4.203125 -2.984375 C 4.023438 -3.066406 3.835938 -3.128906 3.640625 -3.171875 C 3.453125 -3.210938 3.296875 -3.25 3.171875 -3.28125 C 2.816406 -3.363281 2.484375 -3.46875 2.171875 -3.59375 C 1.867188 -3.71875 1.601562 -3.863281 1.375 -4.03125 C 1.144531 -4.207031 0.960938 -4.414062 0.828125 -4.65625 C 0.691406 -4.90625 0.625 -5.191406 0.625 -5.515625 C 0.625 -5.828125 0.695312 -6.117188 0.84375 -6.390625 C 1 -6.660156 1.203125 -6.898438 1.453125 -7.109375 C 1.703125 -7.316406 1.992188 -7.484375 2.328125 -7.609375 C 2.660156 -7.734375 3.015625 -7.796875 3.390625 -7.796875 C 3.722656 -7.796875 4.035156 -7.742188 4.328125 -7.640625 C 4.628906 -7.546875 4.898438 -7.414062 5.140625 -7.25 C 5.378906 -7.09375 5.582031 -6.894531 5.75 -6.65625 C 5.914062 -6.414062 6.023438 -6.15625 6.078125 -5.875 L 4.6875 -5.53125 C 4.625 -5.789062 4.484375 -6.003906 4.265625 -6.171875 C 4.054688 -6.347656 3.765625 -6.4375 3.390625 -6.4375 C 3.265625 -6.4375 3.128906 -6.414062 2.984375 -6.375 C 2.847656 -6.332031 2.722656 -6.273438 2.609375 -6.203125 C 2.492188 -6.128906 2.394531 -6.039062 2.3125 -5.9375 C 2.226562 -5.832031 2.1875 -5.707031 2.1875 -5.5625 C 2.1875 -5.414062 2.234375 -5.289062 2.328125 -5.1875 C 2.421875 -5.082031 2.53125 -4.992188 2.65625 -4.921875 C 2.78125 -4.847656 2.914062 -4.789062 3.0625 -4.75 C 3.21875 -4.707031 3.359375 -4.671875 3.484375 -4.640625 C 4.054688 -4.503906 4.523438 -4.351562 4.890625 -4.1875 C 5.265625 -4.03125 5.5625 -3.851562 5.78125 -3.65625 C 6.007812 -3.46875 6.171875 -3.257812 6.265625 -3.03125 C 6.359375 -2.800781 6.40625 -2.539062 6.40625 -2.25 C 6.40625 -1.914062 6.328125 -1.597656 6.171875 -1.296875 C 6.015625 -0.992188 5.800781 -0.734375 5.53125 -0.515625 C 5.257812 -0.296875 4.929688 -0.125 4.546875 0 C 4.171875 0.113281 3.765625 0.171875 3.328125 0.171875 C 2.671875 0.171875 2.082031 0.0078125 1.5625 -0.3125 C 1.039062 -0.632812 0.691406 -1.066406 0.515625 -1.609375 L 1.828125 -2.203125 C 1.992188 -1.828125 2.207031 -1.570312 2.46875 -1.4375 C 2.738281 -1.3125 3.046875 -1.25 3.390625 -1.25 C 3.816406 -1.25 4.175781 -1.363281 4.46875 -1.59375 Z M 4.46875 -1.59375 "/></g></g></g><g fill="#1cdaff" fill-opacity="1"><g transform="translate(260.116726, 320.3183)"><g><path d="M 3.40625 -0.859375 L 0.15625 -7.65625 L 1.890625 -7.65625 L 4.25 -2.6875 L 6.578125 -7.65625 L 8.28125 -7.65625 L 3.34375 3.0625 L 1.625 3.0625 Z M 3.40625 -0.859375 "/></g></g></g></svg>